<svg fill="none" height="528" viewBox="0 0 903 528" width="903" xmlns="http://www.w3.org/2000/svg" xmlns:xlink="http://www.w3.org/1999/xlink"><linearGradient id="a" gradientUnits="userSpaceOnUse" x1="235.627" x2="235.627" y1="53.5074" y2="313.722"><stop offset="0" stop-color="#faff00"/><stop offset="1" stop-color="#ffa800"/></linearGradient><linearGradient id="b" gradientUnits="userSpaceOnUse" x1="311.034" x2="161.855" y1="317.609" y2="317.609"><stop offset="0" stop-color="#ffe501"/><stop offset="1" stop-color="#ffa800"/></linearGradient><linearGradient id="c" gradientUnits="userSpaceOnUse" x1="756.116" x2="60.9044" y1="49.6206" y2="49.6206"><stop offset="0" stop-color="#ffe600"/><stop offset="1" stop-color="#ffa800"/></linearGradient><linearGradient id="d" gradientUnits="userSpaceOnUse" x1="84" x2="84" y1="374" y2="426"><stop offset="0" stop-color="#7daeea"/><stop offset="1" stop-color="#62a0ea"/></linearGradient><linearGradient id="e"><stop offset="0" stop-color="#9a9996"/><stop offset="1" stop-color="#77767b"/></linearGradient><linearGradient id="f" gradientUnits="userSpaceOnUse" x1="86" x2="86" xlink:href="#e" y1="468" y2="506"/><linearGradient id="g" gradientUnits="userSpaceOnUse" x1="254" x2="254" xlink:href="#e" y1="469" y2="507"/><mask id="h" height="43" maskUnits="userSpaceOnUse" width="900" x="0" y="325"><path d="m0 325h900v43h-900z" fill="#888"/></mask><rect fill="#5e5c64" height="178" rx="26" width="900" y="350"/><path d="m0 355h900v130h-900z" fill="#5e5c64"/><rect fill="#deddda" height="17.2078" rx="8.60388" width="68.831" x="185.538" y="430.303"/><rect fill="#deddda" height="17.2078" rx="8.60388" width="68.831" x="30" y="430"/><rect fill="#deddda" height="17.2078" rx="8.60388" width="68.831" x="495.278" y="430.303"/><rect fill="#deddda" height="17.2078" rx="8.60388" width="68.831" x="650.148" y="430.303"/><rect fill="#deddda" height="17.2078" rx="8.60388" width="68.831" x="805.018" y="430.303"/><rect fill="#deddda" height="17.2078" rx="8.60388" width="68.831" x="340.408" y="430.303"/><path d="m0 344h900v24h-900z" fill="#e0e0e0"/><path d="m0 344c0-10.493 8.50659-19 19-19h862c10.493 0 19 8.507 19 19 0 10.493-8.507 19-19 19h-862c-10.49339 0-19-8.507-19-19z" fill="#e0e0e0"/><g mask="url(#h)"><path d="m904.63 368.093v9.907h3.531v-9.907zm-944.2335 0h-3.5311v9.907h3.5311zm940.7015-43.093v43.093h7.063v-43.093zm3.532 33.187h-944.2335v19.813h944.2335zm-940.7023 9.906v-43.093h-7.0623v43.093z" fill="#888"/></g><g stroke="#303030" stroke-linecap="round" stroke-width="12"><path d="m206.813 68.2366 57.628 57.6894"/><path d="m206.813 241.304 57.628 57.689"/><path d="m206.813 183.615 57.628-57.689"/><path d="m206.813 125.926 57.628 57.689"/><path d="m206.813 183.615 57.628 57.689"/><path d="m206.813 241.304 57.628-57.689"/><path d="m206.813 298.993 57.628-57.689"/><path d="m206.813 125.926 57.628-57.6894"/></g><path clip-rule="evenodd" d="m193.734 67.8274c0-7.9087 6.405-14.32 14.305-14.32h1.226v260.2146h-1.226c-7.9 0-14.305-6.411-14.305-14.32zm68.255 245.8946h1.226c7.9 0 14.305-6.411 14.305-14.32v-231.5746c0-7.9087-6.405-14.32-14.305-14.32h-1.226z" fill="url(#a)" fill-rule="evenodd"/><path d="m176.16 298.993h120.569c7.9 0 14.305 6.411 14.305 14.32v8.592c0 7.909-6.405 14.32-14.305 14.32h-120.569c-7.9 0-14.305-6.411-14.305-14.32v-8.592c0-7.909 6.405-14.32 14.305-14.32z" fill="url(#b)"/><path d="m428.704 45.3246c0-7.9088-6.405-14.32-14.305-14.32h-299.136c-7.901 0-14.305 6.4112-14.305 14.3199v8.592c0 7.9088 6.404 14.32 14.305 14.32h107.081v39.2775c0 8.135 6.588 14.73 14.713 14.73h48.637l37.192-37.2326v-16.7749l91.513.0001c7.9 0 14.305-6.4113 14.305-14.32z" fill="url(#c)"/><path d="m115.263 11.7748h-42.9147c-9.0289 0-16.3483 7.3272-16.3483 16.3658v42.96c0 9.0385 7.3194 16.3657 16.3483 16.3657h42.9147c9.029 0 16.348-7.3272 16.348-16.3657v-42.96c0-9.0386-7.319-16.3658-16.348-16.3658z" fill="#303030"/><path d="m314.712 80.92-33.105 33.141h-11.649v-37.6416h44.754z" fill="#00c1cd"/><path d="m418.845 149.007c-1.866 9.269-9.826 11.771-16.154 12.09-5.551.28-16.22-3.291-14.488-19.815.317-3.022-3.83-4.701-3.83-4.701-.667-.28-1.266-.874 1.665-1.008 3.663-.168 6.993 3.359 7.992 5.877.999 2.519 2.831 9.068 7.328 8.564 4.496-.503 8.417-4.537 3.497-11.754-1.832-2.687-8.826-6.549-8.826-6.549-.889-.504-2.765-2.552-3.164-6.717-.4-4.164-.389-5.205-.333-5.205h11.991v7.556c11.324 4.87 16.653 10.075 14.322 21.662z" fill="#888"/><path d="m411.209 107.514h-26.975v12.275h26.975z" fill="#fafa00"/><path d="m400.541 68.2366h-5.722v39.2774h5.722z" fill="#303030"/><rect fill="#62a0ea" height="206" rx="11" width="437" x="438.704" y="140"/><path d="m740.704 140h135v59h-135z" fill="#62a0ea"/><path d="m641.704 21 234 119h-234z" fill="#62a0ea"/><rect fill="#deddda" height="14.6686" rx="6" transform="matrix(.89224561 .45155041 -.45155041 .89224561 67.812746 -284.172863)" width="306.169" x="629.327"/><rect fill="#3368aa" height="177" rx="10" width="210" x="649.704" y="162"/><rect fill="#3368aa" height="177" rx="10" width="210" x="649.704" y="162"/><rect fill="#77767b" height="177" rx="10" width="210" x="649.704" y="169"/><path d="m452.704 171c0-5.523 4.477-10 10-10h162c5.522 0 10 4.477 10 10v157c0 5.523-4.478 10-10 10h-162c-5.523 0-10-4.477-10-10z" fill="#3368aa"/><path d="m452.704 191h182v147h-182z" fill="#3368aa"/><path d="m452.704 179c0-5.523 4.477-10 10-10h162c5.522 0 10 4.477 10 10v157c0 5.523-4.478 10-10 10h-162c-5.523 0-10-4.477-10-10z" fill="#214470"/><path d="m452.704 199h182v147h-182z" fill="#214470"/><path d="m515.704 225h-63v116h63z" fill="#855e3d"/><path d="m578.704 284h-63v57h63z" fill="#5a3f28"/><path d="m562.704 287h-45v5h45z" fill="#fff" fill-opacity=".27" opacity=".5"/><path d="m540.704 294h-23v3h23z" fill="#fff" fill-opacity=".27" opacity=".5"/><path d="m481.704 326h-29v20h29z" fill="#b5835a"/><path d="m577.704 250h-53v96h53z" fill="#b5835a"/><path d="m577.704 250h-53v96h53z" fill="#b5835a"/><path d="m474.704 329h-18v5h18z" fill="#fff" opacity=".5"/><path d="m468.704 336h-12v3h12z" fill="#fff" opacity=".5"/><path d="m556.704 255h-27v5h27z" fill="#fff" opacity=".5"/><path d="m545.704 262h-16v3h16z" fill="#fff" opacity=".5"/><path d="m501.704 230h-45v5h45z" fill="#fff" fill-opacity=".51" opacity=".5"/><path d="m479.704 237h-23v3h23z" fill="#fff" fill-opacity=".51" opacity=".5"/><path d="m470.704 242h-14v3h14z" fill="#fff" fill-opacity=".51" opacity=".5"/><path d="m481.704 318h43v28h-43z" fill="#d4a782"/><path d="m577.704 274h57v72h-57z" fill="#d4a782"/><path d="m504.704 321h-20v5h20z" fill="#fff" opacity=".5"/><path d="m499.704 328h-15v3h15z" fill="#fff" opacity=".5"/><path d="m602.704 280h-20v5h20z" fill="#fff" opacity=".5"/><path d="m597.704 287h-15v3h15z" fill="#fff" opacity=".5"/><path d="m649.704 186h210v160h-210z" fill="#77767b"/><path d="m649.704 190h210v7h-210z" fill="#5e5c64"/><path d="m649.704 234h210v7h-210z" fill="#5e5c64"/><path d="m649.704 256h210v7h-210z" fill="#5e5c64"/><path d="m649.704 322h210v7h-210z" fill="#5e5c64"/><path d="m649.704 300h210v7h-210z" fill="#5e5c64"/><path d="m649.704 278h210v7h-210z" fill="#5e5c64"/><path d="m649.704 212h210v7h-210z" fill="#5e5c64"/><rect fill="#fff" height="122" rx="12" width="134" x="30" y="365"/><rect fill="url(#d)" height="52" rx="6" width="90" x="39" y="374"/><rect fill="#fff" height="188" rx="11" width="192" x="134" y="299"/><circle cx="86" cy="487" fill="#241f31" r="28"/><circle cx="86" cy="487" fill="url(#f)" r="19"/><path d="m86 472 2.1213.879.8787 2.121-.8787 2.121-2.1213.879-2.1213-.879-.8787-2.121.8787-2.121z" fill="#3d3846"/><path d="m100 485 2.121.879.879 2.121-.879 2.121-2.121.879-2.1213-.879-.8787-2.121.8787-2.121z" fill="#3d3846"/><path d="m86 498 2.1213.879.8787 2.121-.8787 2.121-2.1213.879-2.1213-.879-.8787-2.121.8787-2.121z" fill="#3d3846"/><path d="m72 485 2.1213.879.8787 2.121-.8787 2.121-2.1213.879-2.1213-.879-.8787-2.121.8787-2.121z" fill="#3d3846"/><circle cx="254" cy="488" fill="#241f31" r="28"/><circle cx="254" cy="488" fill="url(#g)" r="19"/><path d="m254 473 2.121.879.879 2.121-.879 2.121-2.121.879-2.121-.879-.879-2.121.879-2.121z" fill="#3d3846"/><path d="m268 486 2.121.879.879 2.121-.879 2.121-2.121.879-2.121-.879-.879-2.121.879-2.121z" fill="#3d3846"/><path d="m254 499 2.121.879.879 2.121-.879 2.121-2.121.879-2.121-.879-.879-2.121.879-2.121z" fill="#3d3846"/><path d="m240 486 2.121.879.879 2.121-.879 2.121-2.121.879-2.121-.879-.879-2.121.879-2.121z" fill="#3d3846"/><path d="m274.313 363.923v43.154l-37.373 21.578v-43.155z" fill="#3368aa"/><path d="m236.94 385.5v-43.155l-37.373 21.578z" fill="#3368aa"/><path d="m201.239 357.684c-3.865 2.231-6.239 6.343-6.239 10.806v34.02c0 4.463 2.374 8.575 6.239 10.806l29.462 17.01c3.866 2.232 8.613 2.232 12.478 0l29.462-17.01c3.866-2.231 6.239-6.343 6.239-10.806v-34.02c0-4.463-2.373-8.575-6.239-10.806l-29.462-17.01c-3.865-2.232-8.612-2.232-12.478 0zm37.373-9.1 29.462 17.01c1.03.595 1.672 1.707 1.672 2.896v34.02c0 1.189-.642 2.301-1.672 2.896l-29.462 17.01c-1.03.594-2.314.594-3.344 0l-29.462-17.01c-1.03-.595-1.672-1.707-1.672-2.896v-34.02c0-1.189.642-2.301 1.672-2.896l29.462-17.01c1.03-.594 2.314-.594 3.344 0z" fill="#3368aa"/><path d="m274.313 358.923v43.154l-37.373 21.578v-43.155z" fill="#4a90d9"/><path d="m236.94 380.5v-43.155l-37.373 21.578z" fill="#4a90d9"/><path d="m201.239 352.684c-3.865 2.231-6.239 6.343-6.239 10.806v34.02c0 4.463 2.374 8.575 6.239 10.806l29.462 17.01c3.866 2.232 8.613 2.232 12.478 0l29.462-17.01c3.866-2.231 6.239-6.343 6.239-10.806v-34.02c0-4.463-2.373-8.575-6.239-10.806l-29.462-17.01c-3.865-2.232-8.612-2.232-12.478 0zm37.373-9.1 29.462 17.01c1.03.595 1.672 1.707 1.672 2.896v34.02c0 1.189-.642 2.301-1.672 2.896l-29.462 17.01c-1.03.594-2.314.594-3.344 0l-29.462-17.01c-1.03-.595-1.672-1.707-1.672-2.896v-34.02c0-1.189.642-2.301 1.672-2.896l29.462-17.01c1.03-.594 2.314-.594 3.344 0z" fill="#4a90d9"/></svg>
