<svg width="16" height="16" viewBox="0 0 16 16" fill="none" xmlns="http://www.w3.org/2000/svg">
<path d="M13.8033 10.8988C13.1213 14.0392 10.2109 14.8869 7.89755 14.995C5.86806 15.0898 1.96748 13.8798 2.60074 8.28192C2.71654 7.25784 1.20017 6.68897 1.20017 6.68897C0.956612 6.59416 0.737411 6.39317 1.80894 6.34771C3.14838 6.29074 4.36574 7.48545 4.73108 8.33875C5.09628 9.1922 5.766 11.4108 7.40997 11.2402C9.05379 11.0696 10.4874 9.70285 8.68845 7.25784C8.01873 6.34771 5.46162 5.0392 5.46162 5.0392C5.13692 4.86857 4.45091 4.17453 4.30492 2.76358C4.15879 1.35277 4.16282 1 4.18314 1H8.56727V3.56005C12.7074 5.20983 14.6556 6.97341 13.8033 10.8988Z" fill="black"/>
</svg>
