<svg fill="none" height="16" viewBox="0 0 16 16" width="16" xmlns="http://www.w3.org/2000/svg"><g fill="#000"><path d="m4 8h5v1h-5z"/><path d="m4 10h3v1h-3z"/><path clip-rule="evenodd" d="m4 3c-.55228 0-1 .44772-1 1s.44772 1 1 1h3v-2zm5 0v2h3c.5523 0 1-.44772 1-1s-.4477-1-1-1zm0 4h-2-3c-.35064 0-.68722-.06015-1-.17071v5.17071c0 .5523.44772 1 1 1h8c.5523 0 1-.4477 1-1v-5.17071c-.3128.11056-.6494.17071-1 .17071zm-5-6c-1.65685 0-3 1.34315-3 3v8c0 1.6569 1.34315 3 3 3h8c1.6569 0 3-1.3431 3-3v-8c0-1.65685-1.3431-3-3-3z" fill-rule="evenodd"/></g></svg>
