<svg width="512" height="512" viewBox="0 0 512 512" fill="none" xmlns="http://www.w3.org/2000/svg">
<g clip-path="url(#clip0_905_504)">
<g clip-path="url(#clip1_905_504)">
<path d="M466.778 344.824L466.778 418.468L403 455.291V381.646L466.778 344.824Z" fill="#4180C2"/>
<path d="M403 381.646V308.001L339.222 344.824L403 381.646Z" fill="#4180C2"/>
<path d="M342.075 334.177C335.478 337.985 331.428 345.001 331.428 352.618V410.674C331.428 418.291 335.478 425.307 342.075 429.115L392.353 458.144C398.949 461.952 407.051 461.952 413.647 458.144L463.925 429.115C470.522 425.307 474.572 418.291 474.572 410.674V352.618C474.572 345.001 470.522 337.985 463.925 334.177L413.647 305.148C407.051 301.34 398.949 301.34 392.353 305.148L342.075 334.177ZM405.853 318.648L456.131 347.676C457.889 348.691 458.984 350.588 458.984 352.618V410.674C458.984 412.704 457.889 414.601 456.131 415.616L405.853 444.644C404.095 445.659 401.905 445.659 400.147 444.644L349.869 415.616C348.111 414.601 347.016 412.704 347.016 410.674V352.618C347.016 350.588 348.111 348.691 349.869 347.676L400.147 318.648C401.905 317.633 404.095 317.633 405.853 318.648Z" fill="#4180C2"/>
<path d="M466.778 337.824L466.778 411.468L403 448.291V374.646L466.778 337.824Z" fill="#4A90D9"/>
<path d="M403 374.646V301.001L339.222 337.824L403 374.646Z" fill="#4A90D9"/>
<path d="M342.075 327.177C335.478 330.985 331.428 338.001 331.428 345.618V403.674C331.428 411.291 335.478 418.307 342.075 422.115L392.353 451.144C398.949 454.952 407.051 454.952 413.647 451.144L463.925 422.115C470.522 418.307 474.572 411.291 474.572 403.674V345.618C474.572 338.001 470.522 330.985 463.925 327.177L413.647 298.148C407.051 294.34 398.949 294.34 392.353 298.148L342.075 327.177ZM405.853 311.648L456.131 340.676C457.889 341.691 458.984 343.588 458.984 345.618V403.674C458.984 405.704 457.889 407.601 456.131 408.616L405.853 437.644C404.095 438.659 401.905 438.659 400.147 437.644L349.869 408.616C348.111 407.601 347.016 405.704 347.016 403.674V345.618C347.016 343.588 348.111 341.691 349.869 340.676L400.147 311.648C401.905 310.633 404.095 310.633 405.853 311.648Z" fill="#4A90D9"/>
</g>
<path d="M453.684 308.413C449.12 331.069 429.643 337.184 414.161 337.964C400.579 338.648 379.262 329.385 383.5 289C384.275 281.612 370 272.5 370 272.5C368.37 271.816 374.5 272.5 373.414 275.58C380 277.5 390.525 283.788 392.97 289.944C395.414 296.101 399.896 312.107 410.898 310.876C421.899 309.645 431.493 299.785 419.454 282.146C414.972 275.58 397.859 266.14 397.859 266.14C395.686 264.909 391.095 259.902 390.118 249.723C389.14 239.545 389 224 389.5 236.5L418.643 237V255.469C446.35 267.371 459.388 280.094 453.684 308.413Z" fill="#717171"/>
<path d="M453.684 308.413C449.12 331.069 429.643 337.184 414.161 337.964C400.579 338.648 379.262 329.385 383.5 289C384.275 281.612 370 272.5 370 272.5C368.37 271.816 374.5 272.5 373.414 275.58C380 277.5 390.525 283.788 392.97 289.944C395.414 296.101 399.896 312.107 410.898 310.876C421.899 309.645 431.493 299.785 419.454 282.146C414.972 275.58 397.859 266.14 397.859 266.14C395.686 264.909 391.095 259.902 390.118 249.723C389.14 239.545 389 224 389.5 236.5L418.643 237V255.469C446.35 267.371 459.388 280.094 453.684 308.413Z" fill="url(#paint0_linear_905_504)"/>
<path d="M453.785 304.413C449.221 327.069 429.744 333.184 414.262 333.964C400.68 334.648 374.576 325.919 378.814 285.534C379.589 278.146 369.441 274.042 369.441 274.042C367.811 273.358 366.344 271.908 373.515 271.58C382.479 271.169 390.626 279.788 393.071 285.944C395.515 292.101 399.997 308.107 410.999 306.876C422 305.645 431.594 295.785 419.555 278.146C415.073 271.58 397.96 262.14 397.96 262.14C395.787 260.909 391.196 255.902 390.219 245.723C389.241 235.545 389.268 233 389.404 233H418.744V251.469C446.451 263.371 459.489 276.094 453.785 304.413Z" fill="#888888"/>
<path d="M435 206H369V236H435V206Z" fill="#FFD600"/>
<path d="M435.102 203H369.102V233H435.102V203Z" fill="#FAFA00"/>
<path d="M409 107H395V203H409V107Z" fill="#303030"/>
<path d="M378.217 307.865L378 308L381.5 324.5L394.5 331L396.726 323.332C398.213 318.21 401.084 313.597 405.022 310.001L410.5 305L400.5 300C392.593 300.988 384.993 303.671 378.217 307.865Z" fill="#4A90D9"/>
<path d="M163 115L241 194" stroke="black" stroke-width="10" stroke-linecap="round"/>
<path d="M163 350L241 428" stroke="black" stroke-width="10" stroke-linecap="round"/>
<path d="M163 272L241 194" stroke="black" stroke-width="10" stroke-linecap="round"/>
<path d="M163 194L241 272" stroke="black" stroke-width="10" stroke-linecap="round"/>
<path d="M163 272L241 350" stroke="black" stroke-width="10" stroke-linecap="round"/>
<path d="M163 350L241 272" stroke="black" stroke-width="10" stroke-linecap="round"/>
<path d="M163 428L241 350" stroke="black" stroke-width="10" stroke-linecap="round"/>
<path d="M163 194L241 115" stroke="black" stroke-width="10" stroke-linecap="round"/>
<path d="M163 110L241 189" stroke="#303030" stroke-width="10" stroke-linecap="round"/>
<path d="M163 345L241 423" stroke="#303030" stroke-width="10" stroke-linecap="round"/>
<path d="M163 267L241 189" stroke="#303030" stroke-width="10" stroke-linecap="round"/>
<path d="M163 189L241 267" stroke="#303030" stroke-width="10" stroke-linecap="round"/>
<path d="M163 267L241 345" stroke="#303030" stroke-width="10" stroke-linecap="round"/>
<path d="M163 345L241 267" stroke="#303030" stroke-width="10" stroke-linecap="round"/>
<path d="M163 423L241 345" stroke="#303030" stroke-width="10" stroke-linecap="round"/>
<path d="M163 189L241 110" stroke="#303030" stroke-width="10" stroke-linecap="round"/>
<path fill-rule="evenodd" clip-rule="evenodd" d="M145 109.426C145 98.6973 153.714 90 164.463 90H166.132V443H164.463C153.714 443 145 434.303 145 423.574V109.426ZM237.868 443H239.537C250.286 443 259 434.303 259 423.574V109.426C259 98.6973 250.286 90 239.537 90H237.868V443Z" fill="url(#paint1_linear_905_504)"/>
<path d="M121.37 433H284.63C295.328 433 304 441.782 304 452.615V464.385C304 475.218 295.328 484 284.63 484H121.37C110.672 484 102 475.218 102 464.385V452.615C102 441.782 110.672 433 121.37 433Z" fill="url(#paint2_linear_905_504)"/>
<path d="M121.37 433H284.63C295.328 433 304 441.782 304 452.615V464.385C304 475.218 295.328 484 284.63 484H121.37C110.672 484 102 475.218 102 464.385V452.615C102 441.782 110.672 433 121.37 433Z" fill="#FC4848" fill-opacity="0.2"/>
<path d="M121.37 423H284.63C295.328 423 304 431.782 304 442.615V454.385C304 465.218 295.328 474 284.63 474H121.37C110.672 474 102 465.218 102 454.385V442.615C102 431.782 110.672 423 121.37 423Z" fill="url(#paint3_linear_905_504)"/>
<path d="M490.436 91.4619C490.436 80.7134 481.734 72 471 72H38.4363C27.7019 72 19 80.7134 19 91.4619V103.139C19 113.888 27.7019 122.601 38.4363 122.601H183.931V175.982C183.931 187.038 192.882 196 203.923 196H270.006L320.541 145.399V122.601H471C481.734 122.601 490.436 113.888 490.436 103.139V91.4619Z" fill="url(#paint4_linear_905_504)"/>
<path d="M490.436 91.4619C490.436 80.7134 481.734 72 471 72H38.4363C27.7019 72 19 80.7134 19 91.4619V103.139C19 113.888 27.7019 122.601 38.4363 122.601H183.931V175.982C183.931 187.038 192.882 196 203.923 196H270.006L320.541 145.399V122.601H471C481.734 122.601 490.436 113.888 490.436 103.139V91.4619Z" fill="#FF5050" fill-opacity="0.2"/>
<path d="M490.436 79.4619C490.436 68.7134 481.734 60 471 60H38.4363C27.7019 60 19 68.7134 19 79.4619V91.139C19 101.888 27.7019 110.601 38.4363 110.601H183.931V163.982C183.931 175.038 192.882 184 203.923 184H270.006L320.541 133.399V110.601H471C481.734 110.601 490.436 101.888 490.436 91.139V79.4619Z" fill="url(#paint5_linear_905_504)"/>
<path d="M99.7297 45H41.2703C28.9707 45 19 54.8739 19 67.0541V124.946C19 137.126 28.9707 147 41.2703 147H99.7297C112.029 147 122 137.126 122 124.946V67.0541C122 54.8739 112.029 45 99.7297 45Z" fill="#0A0A0A"/>
<path d="M99.7297 39H41.2703C28.9707 39 19 48.8739 19 61.0541V118.946C19 131.126 28.9707 141 41.2703 141H99.7297C112.029 141 122 131.126 122 118.946V61.0541C122 48.8739 112.029 39 99.7297 39Z" fill="#303030"/>
<path d="M309 127.217L264.616 173H249V121H309V127.217Z" fill="#00C1CD"/>
</g>
<defs>
<linearGradient id="paint0_linear_905_504" x1="366" y1="318" x2="474" y2="320.5" gradientUnits="userSpaceOnUse">
<stop stop-color="#717171"/>
<stop offset="0.5" stop-opacity="0"/>
<stop offset="1" stop-color="#717171"/>
</linearGradient>
<linearGradient id="paint1_linear_905_504" x1="202" y1="-178" x2="205.5" y2="505" gradientUnits="userSpaceOnUse">
<stop stop-color="#FAFF00"/>
<stop offset="1" stop-color="#FFA800"/>
</linearGradient>
<linearGradient id="paint2_linear_905_504" x1="304" y1="458.5" x2="102" y2="458.5" gradientUnits="userSpaceOnUse">
<stop stop-color="#FFE501"/>
<stop offset="1" stop-color="#FFA800"/>
</linearGradient>
<linearGradient id="paint3_linear_905_504" x1="304" y1="448.5" x2="51" y2="449" gradientUnits="userSpaceOnUse">
<stop stop-color="#FFE501"/>
<stop offset="1" stop-color="#FFA800"/>
</linearGradient>
<linearGradient id="paint4_linear_905_504" x1="509.5" y1="98.5" x2="-35.4218" y2="97.3004" gradientUnits="userSpaceOnUse">
<stop stop-color="#FFE600"/>
<stop offset="1" stop-color="#FFA800"/>
</linearGradient>
<linearGradient id="paint5_linear_905_504" x1="517.5" y1="84" x2="1.99999" y2="84.5" gradientUnits="userSpaceOnUse">
<stop stop-color="#FFE600"/>
<stop offset="1" stop-color="#FFA800"/>
</linearGradient>
<clipPath id="clip0_905_504">
<rect width="512" height="512" fill="white"/>
</clipPath>
<clipPath id="clip1_905_504">
<rect width="400" height="400" fill="white" transform="translate(203 252)"/>
</clipPath>
</defs>
</svg>
