<svg fill="none" height="128" viewBox="0 0 128 128" width="128" xmlns="http://www.w3.org/2000/svg" xmlns:xlink="http://www.w3.org/1999/xlink"><linearGradient id="a" gradientUnits="userSpaceOnUse" x1="20" x2="108" y1="120" y2="120"><stop offset="0" stop-color="#3574bf"/><stop offset=".0625" stop-color="#62a0ea"/><stop offset=".125" stop-color="#2c6dbb"/><stop offset=".875" stop-color="#2467b8"/><stop offset=".9375" stop-color="#62a0ea"/><stop offset="1" stop-color="#1a5fb4"/></linearGradient><path d="m20 91h88v21c0 4.418-3.582 8-8 8h-72c-4.4183 0-8-3.582-8-8z" fill="url(#a)"/><rect fill="#62a0ea" height="96" rx="8" width="88" x="20" y="8"/><path d="m28 16h72v80h-72z" fill="#3368aa"/><path d="m71 32h29v20h-29z" fill="#b5835a"/><path d="m75 35h18v5h-18z" fill="#fff" opacity=".5"/><path d="m75 42h12v3h-12z" fill="#fff" opacity=".5"/><path d="m28 76h29v20h-29z" fill="#b5835a"/><path d="m32 79h18v5h-18z" fill="#fff" opacity=".5"/><path d="m32 86h12v3h-12z" fill="#fff" opacity=".5"/><path d="m28 52h72v7h-72z" fill="#62a0ea"/><path d="m28 24h43v28h-43z" fill="#d4a782"/><path d="m31 27h20v5h-20z" fill="#fff" opacity=".5"/><path d="m31 34h15v3h-15z" fill="#fff" opacity=".5"/><path d="m0 0h43v28h-43z" fill="#d4a782" transform="matrix(-1 0 0 1 100 68)"/><g fill="#fff"><path d="m60 71h20v5h-20z" opacity=".5"/><path d="m60 78h15v3h-15z" opacity=".5"/></g></svg>
