<svg width="403" height="403" viewBox="0 0 403 403" fill="none" xmlns="http://www.w3.org/2000/svg">
<g clip-path="url(#clip0_430_52)">
<mask id="mask0_430_52" style="mask-type:luminance" maskUnits="userSpaceOnUse" x="0" y="0" width="403" height="403">
<path d="M403 0H0V403H403V0Z" fill="white"/>
</mask>
<g mask="url(#mask0_430_52)">
<path d="M302.13 73H291.13V113H302.13V73Z" fill="#888888"/>
<path d="M347.535 224.193V282.159L297.335 311.143V253.176L347.535 224.193Z" fill="#4180C2"/>
<path d="M297.335 253.176V195.21L247.135 224.194L297.335 253.176Z" fill="#4180C2"/>
<path d="M249.38 215.813C244.188 218.81 241 224.333 241 230.328V276.025C241 282.02 244.188 287.542 249.38 290.54L288.955 313.389C294.146 316.386 300.524 316.386 305.715 313.389L345.29 290.54C350.482 287.542 353.67 282.02 353.67 276.025V230.328C353.67 224.333 350.482 218.81 345.29 215.813L305.715 192.964C300.524 189.967 294.146 189.967 288.955 192.964L249.38 215.813ZM299.581 203.59L339.155 226.438C340.539 227.237 341.401 228.73 341.401 230.328V276.025C341.401 277.623 340.539 279.116 339.155 279.915L299.581 302.763C298.197 303.562 296.473 303.562 295.089 302.763L255.515 279.915C254.131 279.116 253.269 277.623 253.269 276.025V230.328C253.269 228.73 254.131 227.237 255.515 226.438L295.089 203.59C296.473 202.791 298.197 202.791 299.581 203.59Z" fill="#4180C2"/>
<path d="M347.535 218.684V276.65L297.335 305.633V247.667L347.535 218.684Z" fill="#4A90D9"/>
<path d="M297.335 247.667V189.7L247.135 218.684L297.335 247.667Z" fill="#4A90D9"/>
<path d="M249.38 210.303C244.188 213.301 241 218.823 241 224.818V270.515C241 276.51 244.188 282.033 249.38 285.03L288.955 307.879C294.146 310.876 300.524 310.876 305.715 307.879L345.29 285.03C350.482 282.033 353.67 276.51 353.67 270.515V224.818C353.67 218.823 350.482 213.301 345.29 210.303L305.715 187.454C300.524 184.457 294.146 184.457 288.955 187.454L249.38 210.303ZM299.581 198.08L339.155 220.929C340.539 221.727 341.401 223.221 341.401 224.818V270.515C341.401 272.113 340.539 273.606 339.155 274.405L299.581 297.253C298.197 298.052 296.473 298.052 295.089 297.253L255.515 274.405C254.131 273.606 253.269 272.113 253.269 270.515V224.818C253.269 223.221 254.131 221.727 255.515 220.929L295.089 198.08C296.473 197.281 298.197 197.281 299.581 198.08Z" fill="#4A90D9"/>
<path d="M337.229 195.534C333.637 213.367 318.306 218.18 306.12 218.794C295.43 219.332 278.651 212.041 281.986 180.254C282.596 174.439 271.36 167.267 271.36 167.267C270.078 166.728 274.902 167.267 274.048 169.691C279.232 171.202 287.516 176.152 289.44 180.997C291.364 185.843 294.892 198.442 303.552 197.473C312.211 196.504 319.762 188.743 310.286 174.859C306.758 169.691 293.289 162.261 293.289 162.261C291.578 161.292 287.965 157.351 287.196 149.339C286.426 141.327 286.316 129.092 286.709 138.931L309.648 139.324V153.861C331.456 163.23 341.719 173.244 337.229 195.534Z" fill="#717171"/>
<path d="M337.217 195.043C333.624 212.876 318.294 217.689 306.108 218.303C295.417 218.842 278.638 211.551 281.974 179.763C282.584 173.948 271.348 166.776 271.348 166.776C270.065 166.238 274.89 166.776 274.035 169.2C279.219 170.712 287.504 175.661 289.428 180.506C291.352 185.353 294.88 197.951 303.539 196.982C312.198 196.013 319.75 188.252 310.274 174.368C306.746 169.2 293.276 161.77 293.276 161.77C291.566 160.801 287.952 156.86 287.183 148.848C286.414 140.837 286.303 128.601 286.697 138.44L309.636 138.834V153.371C331.444 162.739 341.706 172.753 337.217 195.043Z" fill="url(#paint0_linear_430_52)"/>
<path d="M337.308 192.386C333.716 210.218 318.385 215.032 306.199 215.645C295.509 216.184 274.962 209.313 278.298 177.526C278.908 171.711 270.92 168.48 270.92 168.48C269.637 167.942 268.482 166.801 274.127 166.542C281.183 166.219 287.595 173.003 289.52 177.848C291.443 182.695 294.971 195.293 303.631 194.324C312.29 193.355 319.841 185.594 310.365 171.711C306.838 166.542 293.368 159.112 293.368 159.112C291.657 158.143 288.044 154.202 287.275 146.19C286.505 138.179 286.526 136.176 286.633 136.176H309.727V150.713C331.535 160.081 341.798 170.095 337.308 192.386Z" fill="#888888"/>
<path d="M322.522 117.285H270.573V140.898H322.522V117.285Z" fill="#FEB500"/>
<path d="M322.603 112.562H270.653V136.176H322.603V112.562Z" fill="#FFDA00"/>
<path d="M277.828 195.103L277.657 195.209L280.412 208.196L290.645 213.312L292.397 207.277C293.567 203.245 295.827 199.614 298.926 196.784L303.238 192.848L295.367 188.912C289.144 189.69 283.161 191.802 277.828 195.103Z" fill="#4A90D9"/>
<path d="M132.299 90.5176L193.693 152.699" stroke="#575757" stroke-width="10" stroke-linecap="round"/>
<path d="M132.299 275.488L193.693 336.883" stroke="#575757" stroke-width="10" stroke-linecap="round"/>
<path d="M132.299 214.094L193.693 152.699" stroke="#575757" stroke-width="10" stroke-linecap="round"/>
<path d="M132.299 152.699L193.693 214.094" stroke="#575757" stroke-width="10" stroke-linecap="round"/>
<path d="M132.299 214.094L193.693 275.488" stroke="#575757" stroke-width="10" stroke-linecap="round"/>
<path d="M132.299 275.488L193.693 214.094" stroke="#575757" stroke-width="10" stroke-linecap="round"/>
<path d="M132.299 336.883L193.693 275.488" stroke="#575757" stroke-width="10" stroke-linecap="round"/>
<path d="M133.299 152.699L194.693 90.5176" stroke="#575757" stroke-width="10" stroke-linecap="round"/>
<path d="M132.299 86.582L193.693 148.764" stroke="#888888" stroke-width="10" stroke-linecap="round"/>
<path d="M133.299 271.553L194.693 332.947" stroke="#888888" stroke-width="10" stroke-linecap="round"/>
<path d="M132.299 210.158L193.693 148.764" stroke="#888888" stroke-width="10" stroke-linecap="round"/>
<path d="M132.299 148.764L193.693 210.158" stroke="#888888" stroke-width="10" stroke-linecap="round"/>
<path d="M132.299 210.158L193.693 271.553" stroke="#888888" stroke-width="10" stroke-linecap="round"/>
<path d="M132.299 271.553L193.693 210.158" stroke="#888888" stroke-width="10" stroke-linecap="round"/>
<path d="M132.299 332.947L193.693 271.553" stroke="#888888" stroke-width="10" stroke-linecap="round"/>
<path d="M132.299 148.764L193.693 86.582" stroke="#888888" stroke-width="10" stroke-linecap="round"/>
<g filter="url(#filter0_d_430_52)">
<path fill-rule="evenodd" clip-rule="evenodd" d="M108 86.2987C108 77.8494 116.408 71 126.78 71H138.391V349H126.78C116.408 349 108 342.151 108 333.701V86.2987ZM187.609 349H199.22C209.592 349 218 342.151 218 333.701V86.2987C218 77.8494 209.592 71 199.22 71H187.609V349Z" fill="#E4A300"/>
</g>
<path d="M99.5315 340.818H228.035C236.455 340.818 243.281 347.731 243.281 356.258V365.522C243.281 374.049 236.455 380.961 228.035 380.961H99.5315C91.111 380.961 84.2852 374.049 84.2852 365.522V356.258C84.2852 347.731 91.111 340.818 99.5315 340.818Z" fill="url(#paint1_linear_430_52)"/>
<path d="M99.5315 340.818H228.035C236.455 340.818 243.281 347.731 243.281 356.258V365.522C243.281 374.049 236.455 380.961 228.035 380.961H99.5315C91.111 380.961 84.2852 374.049 84.2852 365.522V356.258C84.2852 347.731 91.111 340.818 99.5315 340.818Z" fill="#FEB500"/>
<path d="M99.5315 332.947H228.035C236.455 332.947 243.281 339.86 243.281 348.386V357.651C243.281 366.177 236.455 373.09 228.035 373.09H99.5315C91.111 373.09 84.2852 366.177 84.2852 357.651V348.386C84.2852 339.86 91.111 332.947 99.5315 332.947Z" fill="#FFDA00"/>
<path d="M386.027 71.9905C386.027 63.5303 379.177 56.6719 370.729 56.6719H30.2536C21.8044 56.6719 14.9551 63.5303 14.9551 71.9905V81.1817C14.9551 89.6423 21.8044 96.5004 30.2536 96.5004H144.774V138.517C144.774 147.219 151.819 154.273 160.51 154.273H212.524L252.301 114.445V96.5004H370.729C379.177 96.5004 386.027 89.6423 386.027 81.1817V71.9905Z" fill="url(#paint2_linear_430_52)"/>
<path d="M386.027 71.9905C386.027 63.5303 379.177 56.6719 370.729 56.6719H30.2536C21.8044 56.6719 14.9551 63.5303 14.9551 71.9905V81.1817C14.9551 89.6423 21.8044 96.5004 30.2536 96.5004H144.774V138.517C144.774 147.219 151.819 154.273 160.51 154.273H212.524L252.301 114.445V96.5004H370.729C379.177 96.5004 386.027 89.6423 386.027 81.1817V71.9905Z" fill="#FEB500"/>
<path d="M386.027 62.5452C386.027 54.085 379.177 47.2266 370.729 47.2266H30.2536C21.8044 47.2266 14.9551 54.085 14.9551 62.5452V71.7364C14.9551 80.197 21.8044 87.0551 30.2536 87.0551H144.774V129.072C144.774 137.774 151.819 144.828 160.51 144.828H212.524L252.301 105V87.0551H370.729C379.177 87.0551 386.027 80.197 386.027 71.7364V62.5452Z" fill="#FFDA00"/>
<path d="M72.9884 36.207H26.9745C17.2933 36.207 9.44531 43.9789 9.44531 53.566V99.1333C9.44531 108.72 17.2933 116.492 26.9745 116.492H72.9884C82.6693 116.492 90.5176 108.72 90.5176 99.1333V53.566C90.5176 43.9789 82.6693 36.207 72.9884 36.207Z" fill="#575757"/>
<path d="M72.9884 31.4844H26.9745C17.2933 31.4844 9.44531 39.2562 9.44531 48.8434V94.4106C9.44531 103.998 17.2933 111.77 26.9745 111.77H72.9884C82.6693 111.77 90.5176 103.998 90.5176 94.4106V48.8434C90.5176 39.2562 82.6693 31.4844 72.9884 31.4844Z" fill="#888888"/>
<path d="M237.707 100.921L202.772 136.957H190.48V96.0273H237.707V100.921Z" fill="#4A90D9"/>
</g>
</g>
<defs>
<filter id="filter0_d_430_52" x="104" y="71" width="118" height="286" filterUnits="userSpaceOnUse" color-interpolation-filters="sRGB">
<feFlood flood-opacity="0" result="BackgroundImageFix"/>
<feColorMatrix in="SourceAlpha" type="matrix" values="0 0 0 0 0 0 0 0 0 0 0 0 0 0 0 0 0 0 127 0" result="hardAlpha"/>
<feOffset dy="4"/>
<feGaussianBlur stdDeviation="2"/>
<feComposite in2="hardAlpha" operator="out"/>
<feColorMatrix type="matrix" values="0 0 0 0 0 0 0 0 0 0 0 0 0 0 0 0 0 0 0.25 0"/>
<feBlend mode="normal" in2="BackgroundImageFix" result="effect1_dropShadow_430_52"/>
<feBlend mode="normal" in="SourceGraphic" in2="effect1_dropShadow_430_52" result="shape"/>
</filter>
<linearGradient id="paint0_linear_430_52" x1="268.2" y1="202.589" x2="353.208" y2="204.557" gradientUnits="userSpaceOnUse">
<stop stop-color="#717171"/>
<stop offset="0.5" stop-opacity="0"/>
<stop offset="1" stop-color="#717171"/>
</linearGradient>
<linearGradient id="paint1_linear_430_52" x1="243.281" y1="275.095" x2="243.281" y2="446.685" gradientUnits="userSpaceOnUse">
<stop stop-color="#FFE501"/>
<stop offset="1" stop-color="#FFA800"/>
</linearGradient>
<linearGradient id="paint2_linear_430_52" x1="401.032" y1="77.5303" x2="-27.8808" y2="76.5861" gradientUnits="userSpaceOnUse">
<stop stop-color="#FFE600"/>
<stop offset="1" stop-color="#FFA800"/>
</linearGradient>
<clipPath id="clip0_430_52">
<rect width="403" height="403" fill="white"/>
</clipPath>
</defs>
</svg>
