<svg width="128" height="128" viewBox="0 0 128 128" fill="none" xmlns="http://www.w3.org/2000/svg">
<path d="M20 91H108V112C108 116.418 104.418 120 100 120H28C23.5817 120 20 116.418 20 112V91Z" fill="url(#paint0_linear_3_59)"/>
<rect x="20" y="8" width="88" height="96" rx="8" fill="#62A0EA"/>
<rect x="28" y="16" width="72" height="80" fill="#3368AA"/>
<rect x="71" y="32" width="29" height="20" fill="#B5835A"/>
<rect opacity="0.5" x="75" y="35" width="18" height="5" fill="white"/>
<rect opacity="0.5" x="75" y="42" width="12" height="3" fill="white"/>
<rect x="28" y="76" width="29" height="20" fill="#B5835A"/>
<rect opacity="0.5" x="32" y="79" width="18" height="5" fill="white"/>
<rect opacity="0.5" x="32" y="86" width="12" height="3" fill="white"/>
<rect x="28" y="52" width="72" height="7" fill="#62A0EA"/>
<rect x="28" y="24" width="43" height="28" fill="#D4A782"/>
<rect opacity="0.5" x="31" y="27" width="20" height="5" fill="white"/>
<rect opacity="0.5" x="31" y="34" width="15" height="3" fill="white"/>
<rect width="43" height="28" transform="matrix(-1 0 0 1 100 68)" fill="#D4A782"/>
<rect opacity="0.5" x="60" y="71" width="20" height="5" fill="white"/>
<rect opacity="0.5" x="60" y="78" width="15" height="3" fill="white"/>
<defs>
<linearGradient id="paint0_linear_3_59" x1="20" y1="120" x2="108" y2="120" gradientUnits="userSpaceOnUse">
<stop stop-color="#3574BF"/>
<stop offset="0.0625" stop-color="#62A0EA"/>
<stop offset="0.125" stop-color="#2C6DBB"/>
<stop offset="0.875" stop-color="#2467B8"/>
<stop offset="0.9375" stop-color="#62A0EA"/>
<stop offset="1" stop-color="#1A5FB4"/>
</linearGradient>
</defs>
</svg>
