<?xml version="1.0" encoding="UTF-8"?>
<svg xmlns="http://www.w3.org/2000/svg" xmlns:xlink="http://www.w3.org/1999/xlink" height="16px" viewBox="0 0 16 16" width="16px"><filter id="a" height="100%" width="100%" x="0%" y="0%"><feColorMatrix color-interpolation-filters="sRGB" values="0 0 0 0 1 0 0 0 0 1 0 0 0 0 1 0 0 0 1 0"/></filter><mask id="b"><g filter="url(#a)"><path d="m -1.6 -1.6 h 19.2 v 19.2 h -19.2 z" fill-opacity="0.5"/></g></mask><clipPath id="c"><path d="m 0 0 h 1600 v 1200 h -1600 z"/></clipPath><mask id="d"><g filter="url(#a)"><path d="m -1.6 -1.6 h 19.2 v 19.2 h -19.2 z" fill-opacity="0.7"/></g></mask><clipPath id="e"><path d="m 0 0 h 1600 v 1200 h -1600 z"/></clipPath><mask id="f"><g filter="url(#a)"><path d="m -1.6 -1.6 h 19.2 v 19.2 h -19.2 z" fill-opacity="0.35"/></g></mask><clipPath id="g"><path d="m 0 0 h 1600 v 1200 h -1600 z"/></clipPath><path d="m 8 0 c -4.40625 0 -8 3.59375 -8 8 s 3.59375 8 8 8 s 8 -3.59375 8 -8 s -3.59375 -8 -8 -8 z m 0 2 c 3.324219 0 6 2.675781 6 6 s -2.675781 6 -6 6 s -6 -2.675781 -6 -6 s 2.675781 -6 6 -6 z m 0 0" fill="#222222"/><path d="m 4.929688 4.953125 c -0.128907 0.003906 -0.257813 0.058594 -0.351563 0.152344 c -0.191406 0.195312 -0.1875 0.511719 0.007813 0.707031 l 3.113281 3.042969 c 0.105469 0.097656 0.246093 0.144531 0.386719 0.128906 h 2.914062 c 0.277344 0 0.5 -0.222656 0.5 -0.5 c 0 -0.273437 -0.222656 -0.5 -0.5 -0.5 h -2.761719 l -2.953125 -2.886719 c -0.09375 -0.09375 -0.222656 -0.144531 -0.355468 -0.144531 z m 0 0" fill="#222222"/><g mask="url(#b)"><g clip-path="url(#c)" transform="matrix(1 0 0 1 -600 -380)"><path d="m 550 182 c -0.351562 0.003906 -0.695312 0.101562 -1 0.28125 v 3.4375 c 0.304688 0.179688 0.648438 0.277344 1 0.28125 c 1.105469 0 2 -0.894531 2 -2 s -0.894531 -2 -2 -2 z m 0 5 c -0.339844 0 -0.679688 0.058594 -1 0.175781 v 6.824219 h 4 v -4 c 0 -1.65625 -1.34375 -3 -3 -3 z m 0 0"/></g></g><g mask="url(#d)"><g clip-path="url(#e)" transform="matrix(1 0 0 1 -600 -380)"><path d="m 569 182 v 4 c 1.105469 0 2 -0.894531 2 -2 s -0.894531 -2 -2 -2 z m 0 5 v 7 h 3 v -4 c 0 -1.65625 -1.34375 -3 -3 -3 z m 0 0"/></g></g><g mask="url(#f)"><g clip-path="url(#g)" transform="matrix(1 0 0 1 -600 -380)"><path d="m 573 182.269531 v 3.449219 c 0.613281 -0.355469 0.996094 -1.007812 1 -1.71875 c 0 -0.714844 -0.382812 -1.375 -1 -1.730469 z m 0 4.90625 v 6.824219 h 2 v -4 c 0 -1.269531 -0.800781 -2.402344 -2 -2.824219 z m 0 0"/></g></g></svg>
